<svg width="230" height="230" viewBox="0 0 230 230" fill="none" xmlns="http://www.w3.org/2000/svg">
<path fill-rule="evenodd" clip-rule="evenodd" d="M230 0H0V230H230V0ZM25 39C33.2843 39 40 32.2843 40 24C40 15.7157 33.2843 9 25 9C16.7157 9 10 15.7157 10 24C10 32.2843 16.7157 39 25 39ZM220 24C220 32.2843 213.284 39 205 39C196.716 39 190 32.2843 190 24C190 15.7157 196.716 9 205 9C213.284 9 220 15.7157 220 24ZM25 219C33.2843 219 40 212.284 40 204C40 195.716 33.2843 189 25 189C16.7157 189 10 195.716 10 204C10 212.284 16.7157 219 25 219ZM220 204C220 212.284 213.284 219 205 219C196.716 219 190 212.284 190 204C190 195.716 196.716 189 205 189C213.284 189 220 195.716 220 204ZM115 204C166.915 204 209 161.915 209 110C209 58.0852 166.915 16 115 16C63.0852 16 21 58.0852 21 110C21 161.915 63.0852 204 115 204Z" fill="url(#paint0_linear)"/>
<path d="M62.5 145.5C62.5 148.959 59.8969 151.5 57 151.5C54.1031 151.5 51.5 148.959 51.5 145.5C51.5 142.041 54.1031 139.5 57 139.5C59.8969 139.5 62.5 142.041 62.5 145.5Z" stroke="#CB7572" stroke-width="5"/>
<path d="M53.9856 138.466C53.9856 138.466 50.1973 115.315 82.1874 92.1647C114.178 69.014 132.698 68.5931 132.698 68.5931" stroke="#CB7572" stroke-width="5" stroke-linecap="round"/>
<path d="M177.902 141.686C176.27 138.853 172.652 137.88 169.819 139.512C166.987 141.143 166.014 144.762 167.646 147.594C169.277 150.427 172.896 151.4 175.728 149.768C178.561 148.137 179.534 144.518 177.902 141.686Z" stroke="#CB7572" stroke-width="5"/>
<path d="M168.409 150.555C168.409 150.555 150.24 165.394 114.211 149.232C78.182 133.07 68.5718 117.232 68.5718 117.232" stroke="#CB7572" stroke-width="5" stroke-linecap="round"/>
<path d="M108.577 40.9707C106.966 43.8143 107.964 47.4262 110.808 49.038C113.651 50.6498 117.263 49.6512 118.875 46.8075C120.487 43.9639 119.488 40.3521 116.645 38.7403C113.801 37.1285 110.189 38.1271 108.577 40.9707Z" stroke="#CB7572" stroke-width="5"/>
<path d="M121.038 44.6467C121.038 44.6467 143.047 52.7668 147.412 92.0129C151.778 131.259 143.012 147.579 143.012 147.579" stroke="#CB7572" stroke-width="5" stroke-linecap="round"/>
<path d="M58.6334 104C58.6334 104 49.4373 81.1038 60.3054 72.3616C71.1736 63.6194 95 68.1987 95 68.1987" stroke="#CB7572" stroke-width="5" stroke-linecap="round"/>
<path d="M148.532 65.9784C148.532 65.9784 173.391 67.9134 176.477 81.6384C179.564 95.3634 164.799 114.833 164.799 114.833" stroke="#CB7572" stroke-width="5" stroke-linecap="round"/>
<path d="M137.248 162.363C137.248 162.363 123.023 182.841 109.618 178.573C96.2129 174.305 86.8662 151.728 86.8662 151.728" stroke="#CB7572" stroke-width="5" stroke-linecap="round"/>
<path d="M115 118C119.418 118 123 114.642 123 110.5C123 106.358 119.418 103 115 103C110.582 103 107 106.358 107 110.5C107 114.642 110.582 118 115 118Z" fill="#CB7572"/>
<defs>
<linearGradient id="paint0_linear" x1="230" y1="-1.37091e-05" x2="-4.30721e-06" y2="233" gradientUnits="userSpaceOnUse">
<stop stop-color="#A03D96"/>
<stop offset="1" stop-color="#F1A750"/>
</linearGradient>
</defs>
</svg>
